<svg viewBox="0 0 200 222" xmlns="http://www.w3.org/2000/svg">
  <!-- Molar: two big cusps top, V-channel roots bottom -->
  <path
    d="M45,18
       C18,18 8,45 10,75
       C12,100 18,126 26,148
       C32,165 38,180 44,194
       C48,204 50,212 52,218
       C68,208 84,192 100,188
       C116,192 132,208 148,218
       C150,212 152,204 156,194
       C162,180 168,165 174,148
       C182,126 188,100 190,75
       C192,45 182,18 155,18
       C140,18 122,46 100,50
       C78,46 60,18 45,18
       Z"
    fill="none"
    stroke="#F3E9E2"
    stroke-width="5.5"
    stroke-linejoin="round"
    stroke-linecap="round"
  />
  <!-- 8-pointed compass star — N/S/E/W long, diagonals short, E/W past tooth edges -->
  <path
    d="M100,2
       L102,89 L127,68 L106,93
       L190,95
       L106,97 L127,122 L102,101
       L100,162
       L98,101 L73,122 L94,97
       L10,95
       L94,93 L73,68 L98,89
       Z"
    fill="#F3E9E2"
  />
</svg>
