<svg viewBox="0 0 200 215" xmlns="http://www.w3.org/2000/svg">
  <!-- Molar tooth — stroke outline only, no fill -->
  <path
    d="M100,40 C108,26 122,18 136,21 C152,25 165,42 167,62 C169,82 167,102 160,118 C154,134 146,148 138,162 C132,174 126,188 120,202 Q100,185 80,202 C74,188 68,174 62,162 C54,148 46,134 40,118 C33,102 31,82 33,62 C35,42 48,25 64,21 C78,18 92,26 100,40 Z"
    fill="none"
    stroke="#F3E9E2"
    stroke-width="4.5"
    stroke-linejoin="round"
    stroke-linecap="round"
  />
  <!-- 8-pointed compass star — filled, E/W rays extend past tooth edges -->
  <path
    d="M100,6 L103,82 L125,65 L108,87 L192,90 L108,93 L125,115 L103,98 L100,162 L97,98 L75,115 L92,93 L8,90 L92,87 L75,65 L97,82 Z"
    fill="#F3E9E2"
  />
</svg>
