<svg viewBox="-15 -5 230 230" xmlns="http://www.w3.org/2000/svg">
  <!--
    TOOTH OUTLINE
    Left cusp peak (38,18) — Right cusp peak (162,18) — Center dip (100,52)
    Left root (52,216) — V-channel up to (100,188) — Right root (148,216)
  -->
  <path
    d="M38,18
       C22,12 12,35 14,65
       C15,90 18,112 24,134
       C30,154 36,172 43,188
       C47,198 50,208 52,216
       C66,206 82,192 100,188
       C118,192 134,206 148,216
       C150,208 153,198 157,188
       C164,172 170,154 176,134
       C182,112 185,90 186,65
       C188,35 178,12 162,18
       C144,24 124,50 100,52
       C76,50 56,24 38,18
       Z"
    fill="none"
    stroke="#F3E9E2"
    stroke-width="6"
    stroke-linejoin="round"
    stroke-linecap="round"
  />
  <!--
    STAR — center (100,100)
    N/S/E/W long cardinal rays, E+W punch well past tooth sides
    NE/NW/SE/SW shorter diagonal rays
  -->
  <path
    d="M100,-3
       L103,93  L132,70  L107,96
       L212,100
       L107,104 L132,130 L103,107
       L100,168
       L97,107  L68,130  L93,104
       L-12,100
       L93,96   L68,70   L97,93
       Z"
    fill="#F3E9E2"
  />
</svg>
