<svg viewBox="0 0 200 215" xmlns="http://www.w3.org/2000/svg">
  <!-- Molar: center dip → left cusp → left side → left root → arch → right root → right side → right cusp → back -->
  <path
    d="M100,38
       C90,32 75,20 58,20
       C42,20 28,35 24,58
       C20,78 22,100 26,120
       C30,140 36,158 44,172
       C50,183 55,194 60,202
       Q100,178 140,202
       C145,194 150,183 156,172
       C164,158 170,140 174,120
       C178,100 180,78 176,58
       C172,35 158,20 142,20
       C125,20 110,32 100,38
       Z"
    fill="none"
    stroke="#F3E9E2"
    stroke-width="5"
    stroke-linejoin="round"
    stroke-linecap="round"
  />
  <!-- 8-pointed compass star — E/W tips extend beyond tooth sides -->
  <path
    d="M100,6 L103,83 L126,66 L108,88 L192,92 L108,96 L126,118 L103,101 L100,168 L97,101 L74,118 L92,96 L8,92 L92,88 L74,66 L97,83 Z"
    fill="#F3E9E2"
  />
</svg>
